 <svg  version="1.0" xmlns="http://www.w3.org/2000/svg"  width="300.000000pt" height="300.000000pt" viewBox="0 0 300.000000 300.000000"  preserveAspectRatio="xMidYMid meet">  <g transform="translate(0.000000,300.000000) scale(0.050000,-0.050000)" fill="#477ef7" stroke="none"> <path d="M862 5157 c-20 -8 -56 -38 -79 -68 l-43 -54 0 -2004 0 -2003 42 -45 c23 -25 64 -54 91 -64 75 -29 4298 -25 4353 3 121 62 113 -84 114 2092 0 2142 4 2061 -109 2122 -64 35 -4277 55 -4369 21z m2034 -276 c294 -120 600 -246 681 -279 111 -46 144 -54 135 -31 -6 18 -3 26 8 19 11 -7 20 -23 20 -36 0 -33 467 -222 477 -193 4 12 18 6 33 -15 14 -20 211 -112 437 -205 475 -195 452 -171 361 -380 -56 -129 -65 -169 -48 -201 14 -27 15 -40 1 -40 -12 0 -21 11 -21 24 0 50 -36 -20 -120 -234 -48 -121 -107 -265 -131 -320 -25 -55 -105 -248 -179 -430 -74 -181 -151 -368 -172 -415 -21 -46 -38 -92 -38 -100 0 -9 -18 -50 -41 -91 -22 -42 -35 -84 -30 -93 6 -9 -3 -28 -19 -41 -17 -14 -30 -33 -30 -43 0 -17 -187 -473 -284 -694 -38 -88 -124 -106 -206 -44 -53 40 -1325 549 -1364 545 -26 -2 -46 8 -46 22 0 14 -34 38 -75 53 -41 15 -87 31 -102 37 -22 8 -23 2 -5 -33 13 -24 15 -43 5 -43 -10 0 -24 23 -31 51 -13 50 -98 100 -134 78 -10 -6 -18 -3 -18 8 0 33 -251 128 -303 114 -35 -10 -40 -9 -17 7 32 22 -92 89 -127 68 -10 -6 -24 -1 -32 12 -7 12 -89 53 -182 91 -216 88 -218 49 29 641 115 275 200 503 190 507 -24 9 -23 83 1 83 11 0 14 -16 8 -35 -30 -84 48 30 88 130 44 108 28 161 -27 92 -29 -35 -30 -35 -19 5 10 37 5 41 -40 33 -42 -8 -52 -3 -46 23 4 19 16 31 27 28 11 -3 18 -11 16 -17 -2 -6 12 -11 30 -11 19 0 52 -7 74 -14 35 -11 47 7 98 141 32 85 65 164 72 175 43 63 102 253 90 289 -9 29 -5 38 14 31 31 -12 206 394 200 465 -2 25 8 45 21 45 14 0 47 56 73 125 82 218 130 315 155 315 5 0 249 -98 543 -219z m-756 157 c0 -11 -9 -15 -20 -8 -11 7 -20 4 -20 -6 0 -11 -18 -24 -40 -30 -25 -6 -40 0 -40 17 0 37 34 55 46 24 6 -17 14 -14 24 10 14 35 50 30 50 -7z m989 -19 c-6 -10 5 -13 25 -7 32 10 32 8 -3 -20 -21 -18 -46 -25 -56 -15 -21 21 3 86 27 72 10 -7 14 -20 7 -30z m1421 21 c7 -11 -4 -25 -24 -32 -20 -6 -52 -19 -71 -29 -48 -26 -75 -24 -75 6 0 14 24 26 54 28 30 2 58 13 62 25 9 28 38 28 54 2z m-3334 -38 c6 -17 0 -22 -15 -13 -13 9 -36 -1 -52 -22 -29 -38 -38 -14 -16 42 14 38 69 34 83 -7z m111 12 c7 7 13 2 13 -10 0 -34 -74 -69 -91 -43 -23 37 8 87 38 61 15 -12 33 -16 40 -8z m3504 4 c15 -24 -29 -61 -61 -51 -11 3 -32 -6 -46 -21 -33 -32 -65 -16 -62 30 0 19 5 24 10 11 11 -25 108 9 108 38 0 23 36 18 51 -7z m-2857 -15 c18 16 26 16 26 0 0 -27 -70 -66 -87 -49 -7 7 -13 26 -13 43 0 24 5 26 24 7 17 -17 30 -17 50 -1z m2077 -10 c16 6 29 2 29 -10 0 -23 -77 -53 -94 -36 -6 6 -4 27 4 47 9 23 18 27 24 12 5 -13 22 -19 37 -13z m-2502 -34 c-6 -10 5 -13 25 -7 32 10 32 8 -3 -20 -24 -20 -46 -25 -58 -13 -24 24 0 88 27 71 11 -7 16 -21 9 -31z m-441 -11 c15 -40 16 -78 0 -63 -7 7 -34 4 -60 -6 -50 -19 -74 42 -28 71 11 7 20 3 20 -9 0 -11 10 -21 22 -21 12 0 17 14 11 30 -7 17 -4 30 5 30 10 0 23 -14 30 -32z m3181 -9 c-6 -10 5 -13 25 -7 32 10 32 8 -3 -20 -24 -20 -46 -25 -58 -13 -24 24 0 88 27 71 11 -7 16 -21 9 -31z m728 -21 c-34 -22 -62 -14 -73 21 -6 18 1 23 23 15 17 -7 38 -2 46 11 10 17 17 16 23 -3 5 -15 -3 -34 -19 -44z m-3187 22 c-7 -11 1 -14 19 -8 17 7 31 3 31 -9 0 -23 -77 -53 -94 -36 -17 17 10 73 35 73 12 0 16 -9 9 -20z m1726 -25 c8 -43 -39 -64 -106 -47 -62 16 -65 66 -5 78 73 14 104 6 111 -31z m-2177 -55 c0 -27 -2 -27 -19 0 -11 17 -20 20 -20 7 0 -12 -18 -27 -40 -33 -25 -6 -40 0 -40 17 0 37 34 55 47 24 6 -15 16 -6 24 22 15 49 48 24 48 -37z m657 43 c4 -13 0 -23 -9 -20 -45 10 -88 -30 -77 -70 12 -42 11 -42 -19 -4 -34 43 -42 80 -12 62 10 -7 29 7 41 30 24 43 62 44 76 2z m1761 10 c25 -29 11 -53 -30 -53 -15 0 -27 18 -27 40 0 46 25 52 57 13z m699 -10 c4 -13 0 -23 -9 -20 -39 8 -88 -29 -78 -61 7 -22 -1 -34 -24 -36 -79 -7 -116 -17 -142 -41 -32 -31 -64 -15 -61 31 0 19 5 24 10 11 14 -32 108 14 108 52 0 23 5 24 24 5 34 -34 57 -30 42 9 -8 22 -5 29 10 20 12 -8 32 4 44 28 24 43 62 44 76 2z m84 17 c0 -11 14 -20 31 -20 42 0 20 -32 -31 -46 -32 -8 -40 -1 -40 38 0 26 9 48 20 48 11 0 20 -9 20 -20z m-2920 -76 c0 -15 -8 -21 -19 -15 -10 6 -24 3 -31 -9 -22 -35 -70 -22 -70 20 0 22 9 40 20 40 11 0 20 -9 20 -20 0 -11 10 -20 22 -20 12 0 17 13 12 28 -6 15 -6 34 1 40 15 15 44 -28 45 -64z m2448 44 c15 -40 16 -78 0 -63 -7 7 -34 4 -60 -6 -50 -19 -74 42 -28 71 11 7 20 3 20 -9 0 -11 10 -21 22 -21 12 0 17 14 11 30 -7 17 -4 30 5 30 10 0 23 -14 30 -32z m702 12 c7 -11 -1 -20 -17 -20 -16 0 -34 -11 -39 -25 -5 -14 -14 -20 -22 -13 -20 19 9 78 39 78 15 0 32 -9 39 -20z m110 0 c27 -18 27 -22 0 -40 -43 -28 -80 -25 -80 7 0 51 32 65 80 33z m-4000 -22 c0 -16 9 -15 30 2 17 14 30 16 30 5 0 -31 -56 -70 -79 -56 -27 17 -27 71 -1 71 11 0 20 -10 20 -22z m2776 7 c23 19 27 17 21 -16 -11 -59 -97 -65 -97 -6 0 34 5 40 24 21 18 -18 30 -17 52 1z m1012 -37 c18 -46 15 -72 -7 -59 -10 6 -24 3 -31 -9 -22 -35 -70 -22 -70 20 0 22 9 40 20 40 11 0 20 -9 20 -20 0 -11 10 -20 21 -20 13 0 16 17 9 40 -15 47 20 55 38 8z m308 -7 c6 -17 0 -21 -15 -12 -13 9 -36 -1 -52 -22 -23 -30 -28 -31 -28 -6 -2 67 76 99 95 40z m73 -2 c-6 -10 5 -13 25 -7 32 10 32 8 -3 -20 -24 -20 -46 -25 -58 -13 -24 24 0 88 27 71 11 -7 16 -21 9 -31z m-3875 4 c18 16 26 16 26 0 0 -27 -70 -66 -87 -49 -7 7 -13 26 -13 43 0 24 5 26 24 7 17 -17 30 -17 50 -1z m666 -63 c-16 -11 -39 -17 -50 -13 -11 3 -32 -6 -46 -21 -33 -32 -65 -16 -62 30 0 19 5 24 10 11 14 -32 108 14 108 52 0 24 7 23 35 -5 31 -31 31 -38 5 -54z m-383 -2 c-34 -22 -62 -14 -73 21 -6 18 1 23 23 15 17 -7 38 -2 46 11 10 17 17 16 23 -3 5 -15 -3 -34 -19 -44z m2457 45 c16 13 26 14 26 2 0 -31 -56 -70 -79 -56 -12 8 -21 28 -21 46 0 25 5 28 24 9 17 -17 30 -17 50 -1z m954 -35 c15 -40 16 -78 0 -63 -7 7 -34 4 -60 -6 -50 -19 -74 42 -28 71 11 7 20 3 20 -9 0 -11 10 -21 22 -21 12 0 17 14 11 30 -7 17 -4 30 5 30 10 0 23 -14 30 -32z m-3848 -7 c0 -11 16 -14 35 -7 31 12 32 9 8 -20 -38 -46 -83 -43 -83 6 0 22 9 40 20 40 11 0 20 -9 20 -19z m3497 -43 c-34 -22 -62 -14 -73 21 -6 18 1 23 23 15 17 -7 38 -2 46 11 10 17 17 16 23 -3 5 -15 -3 -34 -19 -44z m631 10 c17 -43 15 -52 -7 -39 -10 6 -24 3 -31 -9 -22 -35 -70 -22 -70 20 0 22 9 40 20 40 11 0 20 -9 20 -20 0 -11 10 -20 22 -20 12 0 17 14 11 30 -7 17 -4 30 5 30 10 0 23 -14 30 -32z m-3908 -8 c0 -11 -13 -20 -28 -20 -16 0 -33 -11 -38 -25 -5 -14 -15 -19 -24 -11 -26 25 7 76 49 76 23 0 41 -9 41 -20z m70 0 c-7 -11 1 -14 19 -8 17 7 31 3 31 -9 0 -23 -77 -53 -94 -36 -17 17 10 73 35 73 12 0 16 -9 9 -20z m226 -17 c4 -13 0 -23 -9 -20 -45 10 -88 -30 -77 -70 12 -42 11 -42 -19 -4 -34 43 -42 80 -12 62 10 -7 29 7 41 30 24 43 62 44 76 2z m149 -14 c68 -16 92 -49 38 -49 -22 0 -45 -11 -52 -25 -6 -14 -8 -5 -3 20 7 39 2 43 -40 33 -34 -9 -48 -4 -48 16 0 38 24 62 39 38 6 -10 36 -25 66 -33z m274 26 c-2 -64 -179 -138 -179 -75 0 22 9 40 20 40 11 0 20 -9 20 -19 0 -11 13 -15 29 -9 16 7 23 25 16 43 -9 24 -3 29 21 19 18 -7 38 -4 45 7 16 26 29 24 28 -6z m2031 -15 c7 -11 -1 -20 -17 -20 -16 0 -34 -11 -39 -25 -5 -14 -15 -19 -24 -11 -23 21 5 76 38 76 16 0 35 -9 42 -20z m80 0 c-7 -11 1 -14 19 -8 17 7 31 3 31 -9 0 -23 -77 -53 -94 -36 -17 17 10 73 35 73 12 0 16 -9 9 -20z m226 -17 c4 -13 0 -23 -9 -20 -45 10 -88 -30 -77 -70 12 -42 11 -42 -19 -4 -34 43 -42 80 -12 62 10 -7 29 7 41 30 24 43 62 44 76 2z m84 17 c0 -11 14 -20 31 -20 42 0 20 -32 -31 -46 -32 -8 -40 -1 -40 38 0 26 9 48 20 48 11 0 20 -9 20 -20z m334 3 c14 12 26 15 26 6 0 -25 -125 -129 -155 -129 -35 0 -25 64 13 76 17 6 22 0 14 -13 -9 -14 -3 -18 15 -11 18 6 25 27 18 54 -8 36 -5 39 16 19 19 -17 33 -18 53 -2z m-3586 -35 c18 -46 15 -72 -7 -59 -10 6 -24 3 -31 -9 -22 -35 -70 -22 -70 20 0 22 9 40 20 40 11 0 20 -9 20 -20 0 -11 10 -20 21 -20 13 0 16 17 9 40 -15 47 20 55 38 8z m3885 -17 c-16 -41 -93 -40 -93 1 0 20 11 28 29 21 17 -6 35 -2 42 9 19 30 36 5 22 -31z m-1125 -3 c18 -46 15 -72 -7 -59 -10 6 -24 3 -31 -9 -22 -35 -70 -22 -70 20 0 22 9 40 20 40 11 0 20 -9 20 -20 0 -11 10 -20 21 -20 13 0 16 17 9 40 -15 47 20 55 38 8z m-2488 -47 c0 -44 -160 -78 -181 -39 -14 26 -14 38 0 38 12 0 21 -8 21 -18 0 -10 22 -8 50 5 27 13 50 35 50 50 0 23 6 23 30 3 17 -14 30 -31 30 -39z m260 -45 c0 -8 -36 -21 -80 -28 -45 -7 -86 -21 -92 -31 -17 -28 -63 -19 -76 14 -9 24 -2 29 28 19 25 -8 40 -4 40 11 0 13 14 18 30 12 18 -7 30 0 30 18 0 16 9 29 20 29 11 0 20 -9 20 -20 0 -11 8 -20 18 -20 10 0 14 20 9 45 -10 44 -9 44 22 6 17 -21 31 -46 31 -55z m2480 4 c-16 -11 -39 -17 -50 -13 -11 3 -32 -6 -46 -21 -33 -32 -65 -16 -62 30 0 19 5 24 10 11 14 -32 108 14 108 52 0 24 7 23 35 -5 31 -31 31 -38 5 -54z m-3163 -2 c-34 -22 -62 -14 -73 21 -6 18 1 23 23 15 17 -7 38 -2 46 11 10 17 17 16 23 -3 5 -15 -3 -34 -19 -44z m3463 -14 c0 -15 -8 -21 -19 -15 -10 6 -24 3 -31 -9 -22 -35 -70 -22 -70 20 0 22 9 40 20 40 11 0 20 -9 20 -20 0 -11 10 -20 22 -20 12 0 17 13 12 28 -6 15 -6 34 1 40 15 15 44 -28 45 -64z m328 64 c18 -7 27 -20 21 -30 -7 -10 -20 -13 -31 -7 -10 6 -24 -2 -30 -20 -7 -17 -21 -25 -32 -18 -13 7 -15 -5 -6 -33 10 -33 7 -42 -13 -35 -15 5 -66 -8 -113 -28 -82 -35 -144 -11 -96 37 6 7 12 3 12 -9 0 -15 15 -14 50 2 27 13 50 36 50 52 0 23 5 24 24 5 34 -34 57 -30 42 9 -8 22 -5 29 10 20 12 -8 32 4 44 26 24 46 24 46 68 29z m92 -8 c0 -11 10 -18 22 -15 13 3 25 -9 28 -26 4 -21 -11 -31 -47 -30 -30 1 -52 12 -51 26 4 55 9 65 28 65 11 0 20 -9 20 -20z m-2980 -79 c0 -31 -167 -82 -183 -57 -8 13 -9 33 -2 44 8 13 15 12 20 -2 10 -30 105 16 105 51 0 23 6 23 30 3 17 -14 30 -31 30 -39z m3190 -163 c0 -128 -8 -206 -20 -204 -58 12 -324 132 -354 160 -43 39 41 135 138 158 31 7 74 29 96 48 45 40 91 59 120 52 12 -3 20 -91 20 -214z m-4000 162 c7 -11 -1 -20 -17 -20 -16 0 -34 -11 -39 -25 -5 -14 -15 -19 -24 -11 -23 21 5 76 38 76 16 0 35 -9 42 -20z m80 0 c-7 -11 1 -14 19 -8 17 7 31 3 31 -9 0 -23 -77 -53 -94 -36 -17 17 10 73 35 73 12 0 16 -9 9 -20z m3127 -42 c-34 -22 -62 -14 -73 21 -6 18 1 23 23 15 17 -7 38 -2 46 11 10 17 17 16 23 -3 5 -15 -3 -34 -19 -44z m-2981 -15 c4 -13 0 -23 -9 -20 -44 9 -88 -29 -75 -68 9 -28 4 -37 -15 -30 -15 5 -66 -8 -113 -28 -82 -35 -144 -11 -96 37 6 7 12 3 12 -9 0 -15 15 -14 50 2 27 13 50 36 50 52 0 23 5 24 24 5 34 -34 57 -30 42 9 -8 22 -5 29 10 20 12 -8 32 4 44 28 24 43 62 44 76 2z m84 17 c0 -11 16 -20 35 -21 32 0 31 -3 -4 -30 -55 -41 -71 -36 -71 21 0 28 9 50 20 50 11 0 20 -9 20 -20z m-403 -47 c3 -19 -1 -32 -10 -30 -10 2 -33 -4 -53 -12 -45 -20 -63 -3 -44 43 10 24 18 28 24 11 5 -14 19 -25 30 -25 11 0 15 14 8 32 -8 20 -3 28 13 23 14 -5 28 -24 32 -42z m3171 4 c-10 -17 -3 -19 24 -9 36 13 36 12 3 -21 -26 -26 -41 -29 -57 -13 -24 24 -9 66 24 66 11 0 14 -11 6 -23z m-2588 -17 c0 -11 -13 -20 -28 -20 -16 0 -33 -11 -38 -25 -5 -14 -15 -19 -24 -11 -26 25 7 76 49 76 23 0 41 -9 41 -20z m98 2 c35 -23 11 -62 -39 -62 -38 0 -53 39 -26 67 18 17 31 16 65 -5z m2732 -22 c-7 -11 1 -14 19 -8 17 7 31 3 31 -9 0 -23 -77 -53 -94 -36 -17 17 10 73 35 73 12 0 16 -9 9 -20z m-2942 -32 c18 -46 15 -72 -7 -59 -10 6 -24 3 -31 -9 -22 -35 -70 -22 -70 20 0 22 9 40 20 40 11 0 20 -9 20 -20 0 -11 10 -20 21 -20 13 0 16 17 9 40 -15 47 20 55 38 8z m-144 -112 c-25 -25 -84 -7 -84 26 0 12 13 17 29 11 17 -6 36 -1 44 12 11 17 17 16 23 -3 5 -14 -1 -35 -12 -46z m-351 4 c16 0 24 -9 17 -20 -18 -30 -90 -24 -90 7 0 35 27 61 36 34 4 -11 21 -21 37 -21z m787 24 c0 -60 -163 -168 -267 -177 -161 -13 -168 10 -31 94 92 57 131 71 142 53 11 -17 15 -17 16 -1 0 13 17 19 38 13 21 -5 44 0 51 12 16 26 51 29 51 6z m-664 -61 c4 -13 0 -23 -9 -20 -45 10 -88 -30 -77 -70 12 -42 11 -42 -19 -4 -34 43 -42 80 -12 62 10 -7 29 7 41 30 24 43 62 44 76 2z m84 16 c0 -12 8 -16 19 -10 10 6 24 3 30 -8 17 -27 -68 -70 -92 -46 -10 10 -13 33 -6 52 15 37 49 45 49 12z m-164 -198 c6 -17 0 -21 -16 -11 -14 8 -32 3 -41 -12 -9 -15 -23 -21 -31 -13 -18 19 32 78 59 69 11 -3 24 -18 29 -33z m111 13 c7 7 13 2 13 -11 0 -13 -13 -29 -30 -36 -16 -6 -24 -20 -17 -32 7 -12 27 -2 47 25 28 37 41 41 75 23 32 -17 45 -17 53 2 10 20 14 20 24 0 6 -14 19 -21 28 -15 10 6 23 2 29 -9 7 -10 -7 -29 -31 -42 -36 -19 -47 -18 -61 7 -30 53 -145 9 -126 -48 19 -60 -3 -44 -50 35 -46 78 -42 149 6 109 15 -12 33 -16 40 -8z m-219 -66 c19 -49 14 -82 -8 -48 -13 20 -19 22 -20 5 0 -14 -13 -25 -30 -25 -16 0 -30 16 -30 35 1 27 4 29 18 8 12 -19 21 -21 31 -5 7 12 8 31 1 42 -7 11 -4 20 7 20 10 0 24 -14 31 -32z m628 -6 c6 -17 0 -22 -15 -13 -13 9 -36 -1 -52 -22 -29 -38 -38 -14 -16 42 14 38 69 34 83 -7z m90 -37 c-40 -30 -77 -3 -59 44 10 27 19 28 53 6 38 -23 38 -27 6 -50z m-566 -65 c-16 -11 -39 -17 -50 -13 -11 3 -32 -6 -46 -21 -33 -32 -65 -16 -62 30 0 19 5 24 10 11 14 -32 108 14 108 52 0 24 7 23 35 -5 31 -31 31 -38 5 -54z m368 48 c15 -40 16 -78 0 -63 -7 7 -34 4 -60 -6 -50 -19 -74 42 -28 71 11 7 20 3 20 -9 0 -11 10 -21 22 -21 12 0 17 14 11 30 -7 17 -4 30 5 30 10 0 23 -14 30 -32z m240 -59 c7 -19 -2 -35 -23 -41 -19 -6 -51 -19 -70 -29 -49 -27 -69 -24 -83 12 -9 24 -2 29 28 19 25 -8 40 -4 40 11 0 13 14 18 30 12 18 -7 30 0 30 18 0 38 33 37 48 -2z m-394 -6 c18 16 26 16 26 0 0 -27 -70 -66 -87 -49 -7 7 -13 26 -13 43 0 24 5 26 24 7 17 -17 30 -17 50 -1z m-218 -60 c4 -13 0 -23 -9 -20 -43 9 -88 -29 -76 -65 6 -21 2 -38 -10 -38 -11 0 -21 8 -21 18 0 10 -6 34 -13 54 -9 23 -6 30 9 21 12 -8 32 4 44 28 24 43 62 44 76 2z m84 17 c0 -11 16 -20 35 -21 32 0 31 -3 -4 -30 -55 -41 -71 -36 -71 21 0 28 9 50 20 50 11 0 20 -9 20 -20z m176 -57 c4 -13 0 -23 -9 -20 -43 9 -88 -29 -76 -65 6 -21 2 -38 -10 -38 -11 0 -21 8 -21 18 0 10 -6 34 -13 54 -9 23 -6 30 9 21 12 -8 32 4 44 28 24 43 62 44 76 2z m84 17 c0 -11 16 -20 35 -21 32 0 31 -3 -4 -30 -55 -41 -71 -36 -71 21 0 28 9 50 20 50 11 0 20 -9 20 -20z m-220 -119 c0 -35 -162 -80 -174 -49 -6 16 -5 35 2 42 6 7 12 3 12 -9 0 -15 15 -14 50 2 27 13 50 35 50 50 0 23 6 23 30 3 17 -14 30 -31 30 -39z m340 -25 c0 -8 -36 -21 -80 -28 -45 -7 -86 -21 -92 -31 -17 -28 -63 -19 -76 14 -9 24 -2 29 28 19 25 -8 40 -4 40 11 0 13 14 18 30 12 18 -7 30 0 30 18 0 16 9 29 20 29 11 0 20 -9 20 -20 0 -11 8 -20 18 -20 10 0 14 20 9 45 -10 44 -9 44 22 6 17 -21 31 -46 31 -55z m-610 -56 c-7 -11 1 -14 19 -8 17 7 31 3 31 -9 0 -23 -77 -53 -94 -36 -17 17 10 73 35 73 12 0 16 -9 9 -20z m220 -40 c7 -11 -5 -20 -27 -20 -22 0 -44 -11 -50 -25 -5 -14 -11 -5 -11 20 -2 47 63 65 88 25z m70 1 c0 -11 16 -14 35 -7 31 12 32 9 8 -20 -38 -46 -83 -43 -83 6 0 22 9 40 20 40 11 0 20 -9 20 -19z m-160 -103 c0 -8 -38 -23 -85 -34 -47 -10 -97 -22 -112 -26 -16 -5 -31 3 -34 18 -3 14 -2 17 3 7 13 -25 108 21 108 52 0 14 9 25 20 25 11 0 20 -9 20 -20 0 -11 8 -20 18 -20 10 0 14 20 9 45 -10 44 -9 44 22 6 17 -21 31 -45 31 -53z m260 -24 c0 -5 -18 -14 -40 -20 -39 -10 -59 41 -28 72 12 11 68 -32 68 -52z m228 -6 c17 -43 15 -52 -7 -39 -10 6 -24 3 -31 -9 -22 -35 -70 -22 -70 20 0 22 9 40 20 40 11 0 20 -9 20 -20 0 -11 10 -20 22 -20 12 0 17 14 11 30 -7 17 -4 30 5 30 10 0 23 -14 30 -32z m-354 -5 c18 16 26 16 26 0 0 -27 -70 -66 -87 -49 -7 7 -13 26 -13 43 0 24 5 26 24 7 17 -17 30 -17 50 -1z m203 -85 c-34 -22 -62 -14 -73 21 -6 18 1 23 23 15 17 -7 38 -2 46 11 10 17 17 16 23 -3 5 -15 -3 -34 -19 -44z m-337 23 c0 -11 16 -14 35 -7 31 12 32 9 8 -20 -38 -46 -83 -43 -83 6 0 22 9 40 20 40 11 0 20 -9 20 -19z m156 -60 c6 -17 0 -21 -16 -11 -14 8 -32 3 -41 -12 -9 -15 -23 -21 -31 -13 -18 19 32 78 59 69 11 -3 24 -18 29 -33z m90 -36 c-40 -30 -77 -3 -59 44 10 27 19 28 53 6 38 -23 38 -27 6 -50z m3722 63 c44 -17 40 -41 -8 -54 -30 -8 -40 0 -40 28 0 42 3 43 48 26z m-3920 -80 c15 -40 16 -78 0 -63 -7 7 -34 4 -60 -6 -50 -19 -74 42 -28 71 11 7 20 3 20 -9 0 -11 10 -21 22 -21 12 0 17 14 11 30 -7 17 -4 30 5 30 10 0 23 -14 30 -32z m272 -92 c0 -8 -36 -21 -80 -28 -45 -7 -86 -21 -92 -31 -17 -28 -63 -19 -76 14 -9 24 -2 29 28 19 25 -8 40 -4 40 11 0 13 14 18 30 12 18 -7 30 0 30 18 0 16 9 29 20 29 11 0 20 -9 20 -20 0 -11 8 -20 18 -20 10 0 14 20 9 45 -10 44 -9 44 22 6 17 -21 31 -46 31 -55z m3755 44 c27 0 26 -5 -6 -29 -52 -40 -69 -38 -69 6 0 43 26 75 36 44 4 -11 22 -21 39 -21z m51 -120 c9 -34 -2 -42 -68 -53 -44 -7 -84 -20 -90 -30 -17 -28 -63 -19 -76 14 -9 24 -2 29 28 19 25 -8 40 -4 40 11 0 13 14 18 30 12 18 -7 30 0 30 18 0 16 9 29 20 29 11 0 20 -9 20 -20 0 -11 8 -20 18 -20 10 0 13 19 7 43 -7 27 -4 38 9 30 12 -7 26 -31 32 -53z m-4190 -19 c6 -17 0 -21 -16 -11 -14 8 -32 3 -41 -12 -9 -15 -23 -21 -31 -13 -18 19 32 78 59 69 11 -3 24 -18 29 -33z m111 13 c7 7 13 2 13 -10 0 -34 -74 -69 -91 -43 -23 37 8 87 38 61 15 -12 33 -16 40 -8z m113 -141 c0 -49 -163 -423 -196 -448 -18 -14 -22 -25 -8 -25 17 0 18 -12 0 -50 -43 -96 -56 -48 -56 209 0 271 4 284 93 293 25 3 61 14 81 26 50 29 86 27 86 -5z m3876 -10 c4 -13 0 -23 -9 -20 -45 10 -88 -30 -77 -70 12 -42 11 -42 -19 -4 -34 43 -42 80 -12 62 10 -7 29 7 41 30 24 43 62 44 76 2z m-156 -123 c-16 -11 -39 -17 -50 -13 -11 3 -32 -6 -46 -21 -33 -32 -65 -16 -62 30 0 19 5 24 10 11 14 -32 108 14 108 52 0 24 7 23 35 -5 31 -31 31 -38 5 -54z m216 -33 c-18 -17 -42 -26 -54 -18 -33 20 -27 57 7 44 17 -6 35 -2 42 9 7 11 18 15 25 9 6 -7 -3 -26 -20 -44z m-146 -27 c-7 -11 1 -14 19 -8 17 7 31 3 31 -9 0 -23 -77 -53 -94 -36 -17 17 10 73 35 73 12 0 16 -9 9 -20z m-170 -95 c0 -14 -7 -24 -15 -22 -8 2 -31 -4 -51 -12 -45 -20 -63 -3 -44 43 10 24 18 28 24 11 5 -14 19 -25 30 -25 11 0 15 13 10 28 -6 15 -6 34 1 40 15 15 44 -27 45 -63z m336 18 c4 -13 0 -23 -9 -20 -44 9 -88 -29 -75 -68 7 -25 5 -35 -8 -27 -11 6 -61 -5 -111 -27 -87 -37 -182 -14 -114 28 12 8 21 5 21 -6 0 -11 20 -10 50 4 27 13 50 36 50 52 0 23 5 24 24 5 34 -34 57 -30 42 9 -8 22 -5 29 10 20 12 -8 32 4 44 28 24 43 62 44 76 2z m-225 -225 c10 -16 20 -14 33 5 14 20 22 21 29 3 5 -13 25 -18 43 -12 31 11 31 8 -1 -26 -30 -31 -42 -33 -75 -13 -65 41 -145 9 -125 -50 5 -15 -23 -29 -74 -37 -45 -7 -87 -21 -93 -31 -17 -28 -63 -19 -76 14 -9 24 -2 29 28 19 25 -8 40 -4 40 11 0 13 14 18 30 12 18 -7 30 0 30 18 0 16 9 29 20 29 11 0 20 -9 20 -20 0 -11 8 -20 18 -20 10 0 14 18 8 40 -8 31 -3 38 22 28 21 -8 32 -2 32 20 0 36 70 44 91 10z m137 -110 c18 -46 15 -72 -7 -59 -10 6 -24 3 -31 -9 -22 -35 -70 -22 -70 20 0 22 9 40 20 40 11 0 20 -9 20 -20 0 -11 10 -20 21 -20 13 0 16 17 9 40 -15 47 20 55 38 8z m-151 -110 c-34 -22 -62 -14 -73 21 -6 18 1 23 23 15 17 -7 38 -2 46 11 10 17 17 16 23 -3 5 -15 -3 -34 -19 -44z m-206 -20 c10 -16 20 -14 33 5 14 20 22 21 29 3 5 -13 25 -18 43 -12 31 11 31 8 -1 -26 -30 -31 -42 -33 -75 -13 -51 32 -94 32 -107 0 -5 -14 -11 -5 -11 20 -2 48 63 65 89 23z m285 -37 c6 -17 0 -21 -16 -11 -14 8 -32 3 -41 -12 -9 -15 -23 -21 -31 -13 -18 19 32 78 59 69 11 -3 24 -18 29 -33z m73 -2 c-6 -10 5 -13 25 -7 32 10 32 8 -3 -20 -24 -20 -46 -25 -58 -13 -24 24 0 88 27 71 11 -7 16 -21 9 -31z m-449 -63 c0 -8 -36 -21 -80 -28 -45 -7 -86 -21 -92 -31 -17 -27 -68 -20 -68 11 0 15 11 27 25 27 67 -3 95 8 95 35 0 17 9 30 20 30 11 0 20 -9 20 -20 0 -11 8 -20 18 -20 10 0 14 20 9 45 -10 44 -9 44 22 6 17 -21 31 -46 31 -55z m565 -4 c-19 -37 -41 -64 -49 -60 -7 5 -19 0 -26 -12 -22 -35 -70 -22 -70 20 0 22 9 40 20 40 11 0 20 -9 20 -20 0 -11 10 -20 22 -20 12 0 17 15 10 32 -9 23 -4 29 17 21 18 -7 34 4 41 28 7 21 21 39 31 39 10 0 3 -31 -16 -68z m-297 16 c15 -40 16 -78 0 -63 -7 7 -34 4 -60 -6 -50 -19 -74 42 -28 71 11 7 20 3 20 -9 0 -11 10 -21 22 -21 12 0 17 14 11 30 -7 17 -4 30 5 30 10 0 23 -14 30 -32z m-154 -65 c18 16 26 16 26 0 0 -27 -70 -66 -87 -49 -7 7 -13 26 -13 43 0 24 5 26 24 7 17 -17 30 -17 50 -1z m-3506 -34 c6 -18 3 -26 -8 -19 -11 7 -20 4 -20 -6 0 -11 -18 -24 -40 -30 -30 -8 -40 0 -40 28 0 43 32 52 46 13 6 -17 14 -14 24 10 18 43 22 43 38 4z m3769 -31 c-34 -22 -62 -14 -73 21 -6 18 1 23 23 15 17 -7 38 -2 46 11 10 17 17 16 23 -3 5 -15 -3 -34 -19 -44z m-505 -1 c10 -16 4 -20 -17 -12 -21 9 -40 -6 -60 -48 -16 -33 -33 -59 -37 -57 -4 1 -24 -4 -44 -11 -48 -18 -62 0 -36 44 11 21 21 26 21 12 1 -37 41 -31 41 6 0 17 8 26 19 20 10 -6 24 7 31 29 14 44 59 53 82 17z m78 3 c-7 -11 1 -14 19 -8 17 7 31 3 31 -9 0 -23 -77 -53 -94 -36 -17 17 10 73 35 73 12 0 16 -9 9 -20z m-3530 -22 c0 -16 9 -15 30 2 17 14 30 16 30 5 0 -31 -56 -70 -79 -56 -27 17 -27 71 -1 71 11 0 20 -10 20 -22z m3736 -17 c6 -17 0 -21 -16 -11 -14 8 -32 3 -41 -12 -9 -15 -23 -21 -31 -13 -18 19 32 78 59 69 11 -3 24 -18 29 -33z m90 -36 c-40 -30 -77 -3 -59 44 10 27 19 28 53 6 38 -23 38 -27 6 -50z m274 14 c0 -12 9 -16 20 -9 11 7 20 3 20 -7 0 -11 14 -23 31 -27 24 -5 22 -11 -10 -31 -34 -21 -38 -20 -27 8 9 25 3 29 -31 18 -35 -11 -43 -6 -43 28 0 22 9 41 20 41 11 0 20 -10 20 -21z m-3984 -36 c4 -13 0 -23 -9 -20 -44 9 -88 -29 -75 -68 9 -28 4 -37 -15 -30 -15 5 -66 -8 -113 -28 -82 -35 -144 -11 -96 37 6 7 12 3 12 -9 0 -15 15 -14 50 2 27 13 50 36 50 52 0 23 5 24 24 5 34 -34 57 -30 42 9 -8 22 -5 29 10 20 12 -8 32 4 44 28 24 43 62 44 76 2z m121 -4 c28 0 28 -4 -6 -30 -51 -39 -71 -37 -71 8 0 43 26 75 36 44 4 -11 22 -21 41 -22z m3391 9 c15 -40 16 -78 0 -63 -7 7 -34 4 -60 -6 -50 -19 -74 42 -28 71 11 7 20 3 20 -9 0 -11 10 -21 22 -21 12 0 17 14 11 30 -7 17 -4 30 5 30 10 0 23 -14 30 -32z m312 -72 c0 -8 -36 -21 -80 -28 -45 -7 -86 -21 -92 -31 -17 -28 -63 -19 -76 14 -9 24 -2 29 28 19 25 -8 40 -4 40 11 0 13 14 18 30 12 18 -7 30 0 30 18 0 16 9 29 20 29 11 0 20 -9 20 -20 0 -11 8 -20 18 -20 10 0 14 20 9 45 -10 44 -9 44 22 6 17 -21 31 -46 31 -55z m-3480 23 c0 -12 10 -15 23 -7 13 8 19 3 13 -14 -16 -47 -76 -46 -76 1 0 22 9 41 20 41 11 0 20 -10 20 -21z m3014 -16 c18 16 26 16 26 0 0 -27 -70 -66 -87 -49 -7 7 -13 26 -13 43 0 24 5 26 24 7 17 -17 30 -17 50 -1z m-3174 -87 c0 -8 -36 -21 -80 -28 -45 -7 -86 -21 -92 -31 -17 -28 -63 -19 -76 14 -9 24 -2 29 28 19 25 -8 40 -4 40 11 0 13 14 18 30 12 18 -7 30 0 30 18 0 16 9 29 20 29 11 0 20 -9 20 -20 0 -11 8 -20 18 -20 10 0 14 20 9 45 -10 44 -9 44 22 6 17 -21 31 -46 31 -55z m372 61 c10 -16 4 -20 -18 -11 -22 8 -39 -5 -57 -46 -14 -31 -32 -53 -40 -48 -8 5 -20 0 -27 -12 -22 -35 -70 -22 -70 20 0 22 9 40 20 40 11 0 20 -9 20 -20 0 -11 10 -20 22 -20 12 0 17 15 10 32 -9 23 -4 29 17 21 18 -7 34 4 41 28 14 43 60 52 82 16z m3408 -43 c0 -5 -18 -14 -40 -20 -39 -10 -59 41 -28 72 12 11 68 -32 68 -52z m-751 -15 c-6 -10 5 -13 25 -7 32 10 32 8 -3 -20 -24 -20 -46 -25 -58 -13 -24 24 0 88 27 71 11 -7 16 -21 9 -31z m311 0 c0 -12 9 -16 20 -9 23 15 100 -24 100 -51 0 -10 -7 -18 -15 -16 -43 9 -85 -30 -75 -70 12 -42 11 -42 -19 -4 -34 43 -42 80 -12 62 10 -7 30 8 42 33 20 38 19 42 -3 21 -39 -38 -78 -30 -78 15 0 22 9 40 20 40 11 0 20 -10 20 -21z m314 4 c15 13 26 14 26 2 0 -20 -140 -125 -166 -125 -8 0 -14 23 -14 50 0 28 9 50 20 50 11 0 20 -9 20 -20 0 -11 13 -20 28 -20 19 0 25 15 17 45 -8 36 -5 40 16 20 19 -17 33 -18 53 -2z m-3123 -45 c15 -24 -29 -61 -61 -51 -11 3 -32 -6 -46 -21 -33 -32 -65 -16 -62 30 0 19 5 24 10 11 11 -25 108 9 108 38 0 23 36 18 51 -7z m2649 -62 c0 -8 -36 -21 -80 -28 -45 -7 -86 -21 -92 -31 -17 -28 -68 -19 -68 12 0 18 12 25 30 18 17 -6 30 0 30 13 0 13 13 19 30 13 18 -7 30 0 30 18 0 16 9 29 20 29 11 0 20 -9 20 -20 0 -11 8 -20 18 -20 10 0 14 20 9 45 -10 44 -9 44 22 6 17 -21 31 -46 31 -55z m-3063 2 c-34 -22 -62 -14 -73 21 -6 18 1 23 23 15 17 -7 38 -2 46 11 10 17 17 16 23 -3 5 -15 -3 -34 -19 -44z m612 -20 c-6 -10 -28 -18 -49 -18 -21 0 -43 -9 -50 -20 -18 -30 -70 -24 -70 8 0 15 11 27 25 27 68 -3 95 8 95 37 0 27 5 28 30 8 16 -13 25 -33 19 -42z m3021 42 c7 -11 -5 -20 -27 -20 -22 0 -44 -11 -50 -25 -5 -14 -11 -5 -11 20 -2 47 63 65 88 25z m70 -1 c0 -12 9 -16 20 -9 11 7 20 4 20 -7 0 -16 -45 -43 -72 -43 -4 0 -8 18 -8 40 0 22 9 40 20 40 11 0 20 -10 20 -21z m-3924 -58 c6 -16 0 -21 -14 -13 -12 8 -28 1 -34 -17 -7 -17 -21 -25 -32 -18 -13 7 -15 -5 -6 -33 10 -33 7 -42 -13 -35 -15 5 -65 -7 -112 -27 -83 -36 -85 -35 -105 3 -15 27 -15 39 -1 39 12 0 21 -8 21 -18 0 -10 22 -8 50 5 27 13 50 36 50 52 0 23 5 24 24 5 33 -33 57 -30 43 6 -7 18 0 30 19 30 16 0 35 14 42 32 14 35 55 29 68 -11z m84 19 c0 -11 16 -20 35 -21 32 0 31 -3 -4 -30 -55 -41 -71 -36 -71 21 0 28 9 50 20 50 11 0 20 -9 20 -20z m3340 -41 c0 -9 -30 -26 -68 -38 -37 -12 -83 -40 -103 -62 -45 -50 -89 -50 -89 1 0 22 9 40 20 40 11 0 20 -9 20 -19 0 -11 13 -15 28 -9 16 6 24 29 20 54 -5 24 -3 34 3 21 15 -30 109 13 109 50 0 23 6 23 30 3 17 -14 30 -32 30 -41z m340 -23 c0 -8 -36 -21 -80 -28 -45 -7 -86 -21 -92 -31 -17 -28 -63 -19 -76 14 -9 24 -2 29 28 19 25 -8 40 -4 40 11 0 13 14 18 30 12 18 -7 30 0 30 18 0 16 9 29 20 29 11 0 20 -9 20 -20 0 -11 8 -20 18 -20 10 0 14 20 9 45 -10 44 -9 44 22 6 17 -21 31 -46 31 -55z m-3370 44 c-7 -11 1 -14 19 -8 17 7 31 3 31 -9 0 -23 -77 -53 -94 -36 -17 17 10 73 35 73 12 0 16 -9 9 -20z m-170 -96 c0 -15 -8 -21 -19 -15 -10 6 -24 3 -31 -9 -22 -35 -70 -22 -70 20 0 22 9 40 20 40 11 0 20 -9 20 -20 0 -11 10 -20 22 -20 12 0 17 13 12 28 -6 15 -6 34 1 40 15 15 44 -28 45 -64z m316 39 c4 -13 0 -23 -9 -20 -43 9 -88 -29 -76 -65 6 -21 2 -38 -10 -38 -11 0 -21 8 -21 18 0 10 -6 34 -13 54 -9 23 -6 30 9 21 12 -8 32 4 44 28 24 43 62 44 76 2z m124 -8 c22 -8 17 -16 -20 -30 -54 -22 -72 -5 -51 50 8 22 18 26 27 12 8 -11 28 -26 44 -32z m130 -35 c7 -11 -1 -20 -17 -20 -16 0 -34 -11 -39 -25 -5 -14 -14 -20 -22 -13 -20 19 9 78 39 78 15 0 32 -9 39 -20z m110 0 c27 -18 27 -22 0 -40 -43 -28 -80 -25 -80 7 0 51 32 65 80 33z m2956 -146 c9 -246 17 -241 -343 -229 -363 12 -405 23 -300 79 40 22 86 52 102 68 15 15 52 34 81 40 30 7 77 27 104 45 88 57 309 161 330 155 11 -3 23 -74 26 -158z m-3792 82 c-25 -25 -84 -7 -84 26 0 12 13 17 29 11 17 -6 36 -1 44 12 11 17 17 16 23 -3 5 -14 -1 -35 -12 -46z m336 5 c0 -35 -162 -80 -174 -49 -6 16 -5 35 2 42 6 7 12 3 12 -9 0 -15 15 -14 50 2 27 13 50 35 50 50 0 23 6 23 30 3 17 -14 30 -31 30 -39z m300 -37 c0 -15 -8 -21 -19 -15 -10 6 -24 3 -31 -9 -22 -35 -70 -22 -70 20 0 22 9 40 20 40 11 0 20 -9 20 -20 0 -11 10 -20 22 -20 12 0 17 13 12 28 -6 15 -6 34 1 40 15 15 44 -28 45 -64z m2340 -7 c0 -8 -34 -21 -75 -29 -41 -7 -90 -21 -109 -31 -20 -10 -39 -9 -46 3 -7 12 -6 20 4 18 38 -6 106 29 106 54 0 16 9 28 20 28 11 0 20 -9 20 -20 0 -11 8 -20 18 -20 10 0 14 20 9 45 -10 44 -9 44 22 6 17 -21 31 -46 31 -54z m336 44 c6 -17 0 -21 -15 -12 -13 9 -36 -1 -52 -22 -23 -30 -28 -31 -28 -6 -2 67 76 99 95 40z m84 18 c0 -12 9 -16 20 -9 11 7 20 3 20 -8 0 -11 -17 -30 -39 -41 -44 -24 -72 2 -53 50 12 33 52 39 52 8z m-3630 -39 c7 -11 -1 -20 -17 -20 -16 0 -34 -11 -39 -25 -5 -14 -15 -19 -24 -11 -23 21 5 76 38 76 16 0 35 -9 42 -20z m110 0 c27 -18 27 -22 0 -40 -43 -28 -80 -25 -80 7 0 51 32 65 80 33z m3328 -32 c15 -40 16 -78 0 -63 -7 7 -34 4 -60 -6 -50 -19 -74 42 -28 71 11 7 20 3 20 -9 0 -11 10 -21 22 -21 12 0 17 14 11 30 -7 17 -4 30 5 30 10 0 23 -14 30 -32z m-2724 -52 c-25 -25 -84 -7 -84 26 0 12 13 17 29 11 17 -6 36 -1 44 12 11 17 17 16 23 -3 5 -14 -1 -35 -12 -46z m596 44 c44 -28 -34 -81 -89 -61 -23 9 -52 11 -66 6 -26 -9 -35 38 -12 62 20 19 132 15 167 -7z m-1403 -47 c3 -19 -1 -32 -10 -30 -10 2 -33 -4 -53 -12 -45 -20 -63 -3 -44 43 10 24 18 28 24 11 5 -14 19 -25 30 -25 11 0 15 14 8 32 -8 20 -3 28 13 23 14 -5 28 -24 32 -42z m339 8 c6 -16 0 -21 -14 -13 -12 8 -28 1 -34 -17 -7 -17 -21 -25 -32 -18 -13 7 -15 -5 -6 -33 10 -33 7 -42 -13 -35 -15 5 -67 -8 -115 -29 -71 -30 -92 -32 -105 -12 -22 35 -21 56 3 56 11 0 20 -8 20 -18 0 -10 22 -8 50 5 27 13 50 36 50 52 0 23 5 24 24 5 34 -34 57 -30 42 9 -8 22 -5 29 10 20 12 -8 32 4 44 28 24 44 62 44 76 0z m84 19 c0 -11 16 -20 35 -21 32 0 31 -3 -4 -30 -55 -41 -71 -36 -71 21 0 28 9 50 20 50 11 0 20 -9 20 -20z m156 -59 c6 -16 0 -21 -14 -13 -12 8 -28 1 -34 -17 -7 -17 -21 -25 -32 -18 -13 7 -15 -5 -6 -33 10 -33 7 -42 -13 -35 -15 5 -66 -8 -113 -28 -82 -35 -144 -11 -96 37 6 7 12 3 12 -9 0 -15 15 -14 50 2 27 13 50 36 50 52 0 23 5 24 24 5 34 -34 57 -30 42 9 -8 22 -5 29 10 20 12 -8 32 4 44 28 24 44 62 44 76 0z m84 20 c0 -10 16 -21 35 -25 30 -7 28 -12 -12 -34 -54 -30 -91 -7 -72 45 14 35 49 46 49 14z m2680 -3 c0 -16 9 -15 30 2 17 14 30 16 30 5 0 -31 -56 -70 -79 -56 -27 17 -27 71 -1 71 11 0 20 -10 20 -22z m-100 -57 c0 -11 16 -14 35 -8 33 12 33 10 2 -23 -39 -41 -102 -27 -85 19 13 34 48 42 48 12z m-2144 -39 c6 -18 1 -22 -16 -12 -14 8 -32 3 -41 -12 -22 -36 -43 -13 -27 30 15 39 70 35 84 -6z m84 17 c0 -12 9 -16 20 -9 11 7 20 3 20 -8 0 -11 -17 -30 -39 -41 -44 -24 -72 2 -53 50 12 33 52 39 52 8z m220 -19 c0 -11 -13 -20 -28 -20 -16 0 -33 -11 -38 -25 -5 -14 -15 -19 -24 -11 -26 25 7 76 49 76 23 0 41 -9 41 -20z m100 0 c27 -18 27 -22 0 -40 -43 -28 -80 -25 -80 7 0 51 32 65 80 33z m-512 -52 c15 -40 16 -78 0 -63 -7 7 -34 4 -60 -6 -40 -15 -48 -12 -48 18 0 52 22 66 57 38 26 -21 28 -19 17 10 -7 19 -5 35 4 35 10 0 23 -14 30 -32z m300 0 c18 -46 15 -72 -7 -59 -10 6 -24 3 -31 -9 -22 -35 -70 -22 -70 20 0 22 9 40 20 40 11 0 20 -9 20 -20 0 -11 10 -20 21 -20 13 0 16 17 9 40 -15 47 20 55 38 8z m363 -10 c10 -16 20 -14 33 5 14 20 22 21 29 3 5 -13 25 -18 43 -12 31 11 31 8 -1 -26 -30 -31 -42 -33 -75 -13 -51 32 -94 32 -107 0 -5 -14 -11 -5 -11 20 -2 48 63 65 89 23z m349 -16 c0 -11 27 -25 60 -32 61 -13 84 -50 32 -50 -16 0 -34 -11 -41 -25 -6 -14 -8 -5 -3 20 7 39 2 43 -40 33 -39 -10 -48 -5 -48 30 0 23 9 42 20 42 11 0 20 -8 20 -18z m-1897 -32 c-4 -11 -17 -17 -28 -14 -12 3 -29 -6 -38 -20 -11 -18 -16 -12 -17 20 0 37 9 45 45 40 25 -3 42 -15 38 -26z m77 11 c0 -11 16 -14 35 -7 31 12 32 9 8 -20 -38 -46 -83 -43 -83 6 0 22 9 40 20 40 11 0 20 -9 20 -19z m957 -63 c-34 -22 -62 -14 -73 21 -6 18 1 23 23 15 17 -7 38 -2 46 11 10 17 17 16 23 -3 5 -15 -3 -34 -19 -44z m-737 -26 c-48 -22 -65 -10 -49 34 10 26 19 28 51 8 38 -24 38 -24 -2 -42z m1080 48 c0 -41 -10 -51 -74 -73 -62 -21 -109 -4 -78 28 7 6 12 2 12 -10 0 -15 15 -14 50 2 27 13 50 34 50 48 0 14 9 25 20 25 11 0 20 -9 20 -20z m720 -1 c0 -12 9 -16 20 -9 11 7 20 4 20 -7 0 -16 -45 -43 -72 -43 -4 0 -8 18 -8 40 0 22 9 40 20 40 11 0 20 -10 20 -21z"/> <path d="M2326 4810 c-64 -167 -114 -290 -251 -620 -348 -831 -455 -1094 -455 -1115 0 -30 59 48 59 79 1 13 11 49 24 80 13 31 22 63 20 71 -2 8 5 15 16 15 10 0 24 20 32 45 14 46 56 149 94 229 12 25 30 39 41 32 13 -8 16 1 8 21 -14 37 43 233 69 233 9 0 17 23 17 51 0 28 8 47 17 41 9 -6 29 39 43 99 15 60 34 109 43 109 9 0 17 16 17 36 0 20 7 45 17 55 9 10 28 57 43 104 14 47 33 85 41 85 8 0 21 33 28 73 23 121 107 -48 110 -219 1 -34 9 -51 22 -43 13 8 19 -6 17 -34 -10 -109 5 -249 21 -197 10 32 16 -12 18 -128 2 -178 21 -266 26 -120 2 63 5 55 18 -42 31 -245 39 -282 82 -365 l44 -86 -77 -194 c-43 -107 -174 -429 -293 -714 -118 -286 -214 -521 -211 -523 2 -2 202 -86 444 -187 242 -101 453 -189 468 -196 22 -9 25 1 15 42 -13 50 -144 776 -464 2563 -71 396 -131 734 -135 750 -3 17 -15 5 -28 -30z m254 -2120 c10 6 17 -10 15 -35 -6 -115 8 -206 25 -165 12 27 18 -11 19 -118 0 -87 7 -153 14 -146 7 8 13 43 12 79 -1 63 0 63 18 15 11 -27 15 -117 9 -200 -6 -82 -5 -132 1 -110 26 95 48 75 43 -40 -2 -66 -14 -127 -25 -135 -14 -9 -12 -14 4 -15 14 0 25 -9 25 -20 0 -11 -16 -20 -36 -20 -20 0 -46 -10 -58 -22 -16 -16 -33 -16 -59 -1 -35 21 -35 22 3 23 33 0 35 4 10 19 -16 11 -37 12 -47 2 -9 -9 -35 -11 -59 -5 -41 10 -41 11 -3 28 32 13 29 15 -15 9 -30 -4 -57 -2 -60 5 -3 7 -41 30 -84 52 -124 63 -126 79 -41 289 42 103 76 200 76 214 0 15 7 27 16 27 10 0 17 10 17 21 0 58 147 327 155 284 4 -25 16 -41 25 -35z"/> <path d="M3246 4578 c10 -43 231 -1234 302 -1628 54 -301 314 -1700 319 -1718 2 -9 141 315 308 720 167 406 371 900 454 1098 160 381 170 412 119 360 -18 -17 -27 -37 -21 -44 7 -7 3 -23 -8 -37 -11 -14 -25 -46 -30 -72 -5 -26 -18 -50 -29 -54 -11 -3 -20 -28 -20 -55 0 -26 -9 -48 -20 -48 -11 0 -20 -22 -20 -50 0 -27 -7 -50 -17 -50 -9 0 -17 -11 -17 -25 0 -14 -18 -65 -41 -115 -22 -49 -51 -119 -65 -155 -14 -36 -34 -65 -45 -65 -10 0 -14 -13 -9 -28 6 -15 5 -34 -2 -42 -8 -7 -15 -19 -16 -27 -6 -48 -35 -123 -48 -123 -15 0 -35 -50 -53 -129 -4 -22 -18 -45 -30 -53 -12 -7 -17 -22 -10 -33 6 -10 -1 -36 -17 -57 -16 -21 -29 -54 -29 -73 -1 -19 -10 -35 -21 -35 -11 0 -20 -21 -20 -47 0 -26 -19 -71 -41 -100 -23 -29 -37 -60 -31 -70 6 -9 -12 -58 -39 -110 -28 -51 -45 -93 -38 -93 6 0 -2 -14 -20 -31 -17 -18 -31 -50 -31 -73 0 -34 -5 -37 -30 -16 -16 14 -30 42 -30 64 0 21 -8 33 -18 27 -10 -6 -18 9 -19 34 -1 83 -22 217 -37 241 -9 13 -17 67 -19 120 -2 53 -14 109 -27 124 -13 16 -18 38 -10 50 7 11 1 54 -13 95 -14 41 -23 90 -20 109 3 19 -6 73 -19 120 -14 47 -27 120 -29 161 -3 40 -20 88 -37 106 -79 79 -68 115 374 1169 72 171 124 316 117 323 -7 7 -202 91 -433 186 -231 96 -433 179 -448 186 -21 9 -25 0 -16 -37z m389 -273 c47 -17 85 -36 85 -44 0 -7 32 -9 70 -5 64 8 100 -23 48 -40 -12 -4 10 -25 50 -46 70 -38 93 -70 51 -70 -12 0 -16 -8 -10 -18 6 -10 -40 -138 -101 -285 -62 -147 -113 -278 -114 -292 0 -14 -8 -25 -16 -25 -8 0 -21 -19 -29 -42 -17 -56 -47 -25 -71 75 -43 179 -78 382 -78 452 0 41 -8 75 -18 75 -10 0 -13 53 -8 117 7 76 3 122 -11 131 -83 51 23 63 152 17z"/> <path d="M2965 4346 c-45 -108 -75 -201 -59 -186 17 17 115 266 107 274 -4 4 -26 -36 -48 -88z"/> <path d="M2941 4031 c-23 -52 -41 -109 -40 -128 0 -18 23 20 50 85 27 65 45 123 39 128 -5 5 -27 -33 -49 -85z"/> <path d="M4640 4017 c50 -24 99 -45 110 -48 11 -3 38 -11 60 -17 22 -7 -14 14 -80 46 -66 32 -133 59 -150 60 -16 1 11 -18 60 -41z"/> <path d="M4875 3927 c50 -20 69 -85 36 -119 -17 -17 -31 -52 -31 -78 0 -26 -9 -53 -20 -60 -11 -7 -20 -30 -20 -51 0 -22 -7 -39 -17 -39 -9 0 -17 -11 -17 -25 -1 -14 -7 -43 -15 -65 -32 -93 38 42 102 196 71 173 64 258 -23 252 -11 -1 -9 -6 5 -11z"/> <path d="M1571 2975 c-15 -36 -74 -177 -132 -315 -175 -416 -196 -480 -159 -480 11 0 18 7 16 15 -8 33 28 145 48 145 11 0 15 14 9 30 -7 17 -3 30 8 30 10 0 17 7 15 15 -3 8 6 34 19 57 13 24 18 48 11 55 -7 7 -2 13 11 13 13 0 23 23 23 50 0 28 9 50 20 50 11 0 20 16 20 36 0 20 11 47 24 60 13 13 17 24 9 24 -8 0 -2 25 13 55 32 61 64 136 82 190 19 61 -9 38 -37 -30z"/> <path d="M3482 2787 c-1 -24 -20 -86 -43 -138 -22 -52 -36 -98 -32 -103 16 -15 96 212 87 248 -8 30 -10 29 -12 -7z"/> <path d="M3341 2419 c-25 -56 -41 -106 -36 -111 5 -5 29 38 52 95 56 134 44 147 -16 16z"/> <path d="M3373 2227 c-41 -95 -69 -177 -64 -183 6 -5 18 12 28 38 10 27 42 106 71 176 28 71 49 132 45 136 -4 3 -40 -71 -80 -167z"/> <path d="M3244 2190 c-24 -50 -36 -90 -27 -90 17 0 88 162 77 173 -4 3 -26 -34 -50 -83z"/> <path d="M1400 2146 c0 -15 162 -89 349 -159 35 -13 37 -11 10 17 -16 18 -36 28 -44 23 -9 -5 -38 8 -66 31 -29 22 -64 35 -80 29 -26 -10 -38 14 -31 58 1 9 -15 5 -36 -9 -31 -19 -45 -18 -70 3 -18 14 -32 18 -32 7z"/> <path d="M3280 2015 c0 -3 -18 -52 -40 -110 -44 -116 -39 -143 7 -40 39 85 59 155 44 155 -6 0 -11 -2 -11 -5z"/> </g> </svg> 
